<svg id="eiru38bSVlw1" xmlns="http://www.w3.org/2000/svg" xmlns:xlink="http://www.w3.org/1999/xlink" viewBox="0 0 1920 973" shape-rendering="geometricPrecision" text-rendering="geometricPrecision"><path d="M0,0h100v100h-100Z" transform="matrix(11.531775 0 0 9.464181 349.887766 13.29095)" paint-order="stroke fill markers" fill="#4a87ff" stroke="#000" stroke-width="2" stroke-linecap="round"/><g transform="matrix(4.598495 0 0 4.189357 423.743151 26.561017)"><g><path d="M111.79,8.57c-3.923.462-7.941,1.946-11.469,3.406-3.527,1.46-6.695,2.95-7.875,3.344-2.497.832-3.243,2.762-3.906,4.469-.664,1.707-1.078,3.578-1.406,5.406-.484,2.69-.564,4.05-.657,5.219-.549292.365658-1.05287.795714-1.5,1.281-.966,1.067-1.737,2.338-2.468,3.75-1.463,2.824-2.747,6.301-3.844,9.75-1.61,5.06-2.59,9.1-3.125,11.406l-20.97.97c-.5-.378-.835-.679-1.969-1.406-1.703-1.093-3.809-2.366-6.219-2.906-2.228-.5-4.767-.403-7.031-.313-2.007.08-3.298.186-3.656.219-.424-.105-2.57-.64-5.719-1.281-3.443-.702-7.403-1.438-10.438-1.438-3.256,0-6.274,1.203-8.625,2.938s-4.313,4.06-4.313,7.218c0,2.3-.7,6.425-.906,7.688-.588.382-.89.544-1.812,1.281-.783.626-1.587,1.316-2.313,2.188-.726.871-1.562,1.92-1.562,3.718v9.375c0,2.846,1.47,4.278,2.562,5.688.425.549.486.565.844.969-.366.925-.658,1.633-1.281,3.5-.468,1.402-.93,2.885-1.25,4.312s-.616,2.642-.281,4.313c.465,2.329,1.792,4.564,3.875,6.719c2.082,2.154,5.025,4.087,8.687,4.468c3.484.363,8.71-.17,13.844-.906c2.567-.368,5.057-.808,7.125-1.25s3.526-.722,4.938-1.437c1.38-.7,1.992-1.602,2.625-2.5.632-.899,1.157-1.873,1.625-2.782.455-.885.502-1.052.78-1.687c1.401-.091,5.462-.362,11.22-.719c6.672-.414,14.129-.812,14.906-.812-.221,0,1.542.63,2.812,1.593.531.403.557.478.938.813-.99,3.08-9.547,29.65-12.75,43.53-3.456,14.977-6.125,47.848-6.125,55.782c0,4.353,1.983,7.708,4.625,9.375s5.531,1.906,7.75,1.906c1.5,0,7.4.416,13.469.625c6.068.21,12.286.327,16.469-.719c6.767-1.691,11.375-3.406,11.375-3.406c1.247752-.467157,2.037908-1.701266,1.94-3.03l-1.656-21.28v-12.159c2.076-.202,7.23-.715,14.812-1.53c4.487-.484,9.079-1,12.78-1.47c1.851-.234,3.482-.452,4.782-.656c1.3-.203,2.096-.313,3.031-.625c2.86-.953,4.832-.972,6.969-.281.425.137,1.86,1.172,2.875,2.219.739.763.994,1.112,1.25,1.437.095.797.764,6.461,1.531,13.281.41,3.643.82,7.38,1.125,10.406.306,3.027.5,5.576.5,5.906c0,2.827,1.128,5.768,2.687,8.72.78,1.475,1.701,2.852,2.813,4.03s2.528,2.375,4.687,2.375c1.651,0,9.8.012,18.031-.125c4.116-.068,8.24-.187,11.625-.343s5.605-.2,7.532-.75c1.907-.545,3.334-2.142,3.937-3.688.604-1.545.698-3.084.656-4.625-.083-3.08-.841-6.24-1.406-8.5-.429-1.716-3.006-14.353-5.344-26.062-2.229-11.165-4.121-20.844-4.312-21.812.371-.613.714-1.14,1.437-2.594c1.038-2.083,2.25-4.434,2.25-7.25c0-1.491-.287-4.15-.718-8.343s-1.006-9.522-1.625-14.938c-1.24-10.831-2.593-21.745-3.22-25.188-.887-4.886.651-17.202-2.187-33.094-1.423-7.973-4.236-17.785-8.093-26.281-3.857-8.497-8.522-15.924-15.344-18.438-5.674-2.09-12.081-3.001-17.688-3.563s-10.605-.843-12.438-1.25c-2.493-.554-8.166-1.773-14.094-2.781-5.929-1.009-11.887-1.874-16.125-1.375Z"/><path d="M113.07,14.49c-.187-.5,1.125-5.312,1.125-5.312s-3.937.843-4.187-.688c-.113-.69,2.312-3.625,2.812-4.687s2.188-5.375,4.5-3.188s4,3.938,4.063,5-3.75,2.938-3.75,2.938.468,5.2-.438,6.312c-1.01,1.241-4.125-.375-4.125-.375Z" fill="#e9ddaf"/><path d="M117.04,0.41c.1.61.296,1.588.656,2.219.5.875.438,3-.312,3.187s-5.5,1.688-5.625,2.563s2.531.031,2.531.031c-.076.72-.217,1.291-.313,1.906.912.057,2.136.61,2.282,1.438.126.713-.022,2.337-.157,3.562.447-.018.836-.12,1.094-.437.906-1.112.438-6.313.438-6.313s3.812-1.875,3.75-2.937-1.75-2.813-4.063-5c-.092-.088-.19-.152-.281-.219Z" fill="#786721"/><path d="M98.62,10.99c0,0-4.96,1.654-5.925,1.516s-.435-1.583-.172-2.308c.725-2,3.031-3.652,4.443-4.582c1.061-.699,6.615-.276,7.58.413.964.69,1.377,2.067.413,2.618-.965.552-6.339,2.343-6.339,2.343Z" fill="#c83737"/><path d="M104.1,5.84c.204.439.536,1.173.406,1.406-.172.31-1.19.931-1.5,1-.31.07-3.375.193-4.719.469-1.343.276-3.617,2.174-4.03,2.656-.414.482.086.56.5.594.684-.21,2.526-.654,4.187-1.063.529-.177,5.12-1.729,6.031-2.25.965-.55.527-1.936-.438-2.625-.097-.07-.255-.124-.437-.187Z" fill="#800000"/><path d="M97.73,10.74c0,0,1.171,3.962,1.31,4.788-.276.414,2.066.965,2.066.965l3.17-1.791c0,0-1.338-1.288-2.205-1.792-.907-.525-2.102-2.928-2.102-2.928-.579-.358-2.044.132-2.239.758Z" fill="#f4eed7"/><path d="M99.41,9.88c-.666.016-1.542.406-1.687.875c0,0,.245.818.468,1.594.407-.131.882-.27,1.156-.25.483.034,2.38.818,3.063,1.781.32.45.312,1.625.312,1.625l.375-.125l1.188-.656c0,0-1.351-1.31-2.219-1.813-.906-.525-2.094-2.906-2.094-2.906-.144-.09-.34-.13-.562-.125Z" fill="#786721"/><path d="M122.1,12.44c0,0,.655-.727.53-3.977.563,1.437.62,4.507.62,4.507s.915-.865.353-2.74c.562.438,1.502,2.917,1.502,2.917l1.591-1.06c0,0-.944-2.534-1.944-4.597.562.563,2.647,4.406,2.21,3.094c0,0,.073-.522-.177-2.21c1.125,1.375,2.032,4.42,2.032,4.42l2.652-.089c0,0-.638-2.73-1.326-5.48c1.938,3.125,2.122,4.95,2.122,4.95l1.679,1.502c1.51-.983,1.11-2.921,1.414-4.507l.177,1.767c.997,2.192.258-1.98.353-3.093l1.768,5.038l3.36-.796.441-4.507.088,6.717l2.299.265c.323-.954-.125-2.063-.62-3.182.772.948,1.545,1.895,1.503,3.005.275-.824.699-1.65.177-2.474.6.546.939,1.144.707,1.856l3.113-.914c.882.65.36-2.442.334-4.213l.796,1.414.619-3.093c-.374,4.61.016,4.894.088,6.983l1.326.353.707-2.74.353,4.685l1.326.088-.088-3.712l1.944,3.535l1.326-.884-.707-3.977l2.74,5.392-.177-3.27l2.122,3.358c0,0,2.563.796,2.033.796s-1.326-2.74-1.326-2.74l2.74,3.623-1.326,1.061-41.366-6.452Z" fill="#4a0"/><path d="M89.25,32.48c-5.512.276-11.299,27.008-11.299,27.008L53.699,60.59c0,0-4.61-3.65-7.992-4.41-3.069-.688-10.197,0-10.197,0s-11.024-2.755-15.984-2.755-9.922,3.858-9.922,7.165-1.102,9.37-1.102,9.37-5.512,3.308-5.512,5.512v9.37c0,2.205,3.859,6.064,3.859,6.064s-3.859,9.37-3.308,12.125c.552,2.756,4.412,8.246,9.922,8.82c5.502.572,21.404-1.865,24.252-3.308c1.967-.996,4.41-7.165,4.41-7.165s25.354-1.654,28.11-1.654c2.755,0,7.165,4.41,7.165,4.41s-9.922,30.866-13.228,45.196c-3.307,14.33-6.063,47.953-6.063,55.118s5.511,8.268,9.37,8.268s22.599,1.653,29.213,0c6.614-1.654,11.024-3.307,11.024-3.307l-1.654-21.496v-14.882c0,0,34.173-3.308,37.481-4.41c3.307-1.102,6.075-1.163,8.82-.275c2.842.919,6.062,5.236,6.062,5.236s3.307,27.559,3.307,30.866s3.859,12.126,7.166,12.126s32.52,0,36.378-1.103c3.858-1.102,2.204-8.819,1.102-13.228-1.102-4.41-9.921-49.055-9.921-49.055s3.858-6.063,3.858-9.37-4.41-41.89-5.512-47.953.551-17.638-2.204-33.07-11.024-38.584-21.496-42.442c-10.473-3.858-24.803-3.582-29.764-4.685-4.961-1.102-22.437-4.932-29.213-4.134s-15.433,5.512-18.74,6.614c-3.308,1.103-4.134,14.331-4.134,14.331Z" fill="#b8b4ab"/><path d="M89.25,32.47c-5.512.276-11.312,27.031-11.312,27.031h-.188l3.47,1l8.093-25.156ZM19.531,53.439c-4.96,0-9.937,3.85-9.937,7.156c0,2.917-.768,7.408-.97,8.563.41-.04.702-.069,1.25-.125.276-2.185,1.16-8.673,2.25-10.656c1.748-3.176,4.463-3.494,5.907-3.47c2.523.045,3.797-.353,4.594-1.25-1.148-.138-2.226-.218-3.094-.218Zm21.594,2.438c-2.53.03-4.803.234-5.312.28l2.825,2.632-8.482,5.65l1.966,26.97l4.601-1.05c-2.423-6.766-2.037-15.075-2.078-22.005l4.776-.94c.362-1.539,3.653-5.714,7.017-7.85-.316-1.148-.689-2.278-1.063-3.407-1.138-.207-2.692-.3-4.25-.281ZM9.75,70.002l-1.437.062C8.135,70.171,3,73.302,3,75.47v9.375c.43,1.36,1.225.49,2.594.25-.475-2.493-.369-9.862.344-10.812.712-.95,3.812-4.281,3.812-4.281ZM6.719,90.752c.208,1.636-3.742,8.405-3.188,12.28.37.922,1.616-.9,2.407-1.312l1.906-8.187c3.237-1.842,6.4-1.82,9.906-1.625-3.824-.219-9.473-.611-11.031-1.157Zm159.74,83.837c-4.883-.196-12.908-6.936-8.02-.994c0,0,3.282,27.537,3.282,30.844c0,1.15.502,2.995,1.25,4.875c0,0,12.475.675,12.713-4.311Zm-21.2-148.21c0,0,7.388-.672,8.06.671s16.792,49.704,16.792,49.704-3.023,8.06-3.694,12.426l-1.344,33.248-4.162-.95-3.833,2.646l3.056,3.104c-3.42,14.751-.746,18.534-1.106,27.776l-7.47,1.581-.729-10.19c-.238-2.967-4.421-3.231-4.562-5.16-.475-2.612,1.597-15.9,1.597-15.9l7.406-5.299l1.743-12.049-7.724-14.777ZM89.533,74.74l-16.97,25.655c2.396,1.245,4.845,3.72,4.845,3.72s-9.943,30.887-13.25,45.218-6.063,47.928-6.063,55.094c0,.762.072,1.463.188,2.094c0,0,2.032-1.869,7.731.031l1.906-42.28l5.932-5.707c0,0-2.571-12.52-2.132-14.718c1.9-9.499,7.443-24.579,8.8-25.414c3.087-1.9,10.443-10.187,10.443-10.187L93.61,97.274l-6.672,5.035l2.844-19.725Zm23.969-63.313c-.502.016-.952.044-1.375.094-6.776.798-15.443,5.523-18.75,6.625-3.307,1.103-4.125,14.312-4.125,14.312-.375.019-.75.192-1.125.438l.375,22.875l3.437-2.375c0,0-1.004-1.162-.452-4.083c1.213-6.415,9.945-3.448,13.135-.758c1.322,1.115,1.005,11.247,1.005,11.247s-6.88.844-9.063.844-3.78.563-3.78.563l1.5,2.968l4.968.657-8.844,5c.152,2.725.325,5.294,2.031,5.843l7.157-2.656-6.188,7.5l2.906,12.625l2.688,4.188l1.937,6.125c0,0,2.333-2.52,3.844-2.688s9.574,1.172,9.406.5c-.168-.671,1.844-5.719,1.844-5.719s-5.364-.656-6.875-.656-8.406,1.656-8.406,1.656l-1.938-4.375c0,0,9.345-3.152,10.688-3.656c1.344-.504,8.72,2.344,8.72,2.344l-.5-2.688c0,0-5.552-2.863-7.063-3.03-1.512-.169-11.406,4.03-11.406,4.03s-2.848-8.398-2.344-9.406c.504-1.007,9.406-5.719,9.406-5.719s2.426-20.457,2.594-21.969c.168-1.51-2.764-4.988-2.764-4.988s4.558-.733,5.87-3.262c2.06-3.969,12.269-4.187,12.269-4.187s.198-3.362-3.284-7.473c-.202-4.95.68-15.23.815-20.152-3.136-.412-6.097-.662-8.312-.593ZM124.94,59.803l-10.227.992-.023,1.695l7.718,1.5v-1.5Z" fill="#e7e7dd"/><path d="M138.31,20.08c0,0,2.48,14.331.276,15.709s-2.48,6.339-2.48,6.339s2.48,8.267,2.48,10.473c0,2.204-.552,6.338-1.103,9.094s3.032,8.82,3.032,10.197-.827,19.291-2.756,21.496c-1.93,2.205-6.339,12.953-6.339,12.953s-17.638,1.378-21.772,1.103c-4.134-.276-8.268-2.48-8.268-2.48s7.993,5.236,8.82,6.338c.826,1.102,10.196,1.654,10.196,1.654s4.685.55,3.859,2.204c-.827,1.654-4.961,3.583-4.961,3.583s14.606-1.654,16.26-3.032s10.748-19.567,12.677-19.843c1.93-.275,3.031-3.582,3.031-3.582s4.134-16.811,3.032-17.638-2.756-9.646-2.756-12.402-2.48-33.622-5.512-36.654c-3.031-3.032-7.716-5.512-7.716-5.512Zm18.476,6.608c0,0,21.5,46.022,21.5,50.156s-2.21,46.866-3.313,47.969c-1.102,1.102-8.267.832-9.093,3.313-.827,2.48-2.23,26.997-2.781,28.375-.552,1.378-7.42,1.931-9.625,1.656-2.205-.276,4.945,3.562,6.875,3.562s10.196-1.906,12.125-1.906s5.247.531,6.625.531s5.792,1.946,6.343,3.875c.551,1.93,1.637,12.108,2.188,17.344.551,5.237,5.25,26.483,5.25,28.688c0,1.43-1.928,4.237-3.313,6.125c7.234-.15,14.003-.416,15.72-.906c3.858-1.102,2.195-8.81,1.093-13.219-1.102-4.41-9.906-49.062-9.906-49.062s3.844-6.068,3.844-9.375-4.398-41.874-5.5-47.938c-1.103-6.063.537-17.661-2.22-33.094-1.676-9.391-5.392-21.605-10.405-30.625-8.246-3.16-16.448-6.585-25.406-5.469ZM90.067,35.501c0,0-6.872,23.149-8.25,26.594-2.756,1.24-13.592,1.38-20.406,1.656-2.111.085-6.344,0-6.344,0s-2.889-3.838-5.094-3.563c-2.204.276-6.456,4.224-7.925,7.57-1.367,3.113-.47,8.271-.194,10.2.276,1.93.557,10.758.557,12.136s-6.903,1.625-8.281,1.625-3.453-16.995-2.888-24.444c.342-4.508,8.419-8.337,8.419-8.337L25.88,55.907c0,0,1.082,3.304.531,4.406s-2.469,10.188-2.469,10.188l-8-.812-2.7.331c0,0,2.692.481,3.794.481s4.969,2.219,4.969,2.219l-.531,17.625-10.5.844l10.5,1.093c0,0,2.755,1.66,3.03,3.313.276,1.653,1.626,12.938,1.626,12.938s-10.727,1.662-12.656,1.937c-.648.093-1.512.41-2.375.782.752.285,1.542.507,2.375.593c5.502.573,21.402-1.87,24.25-3.312c1.967-.996,4.406-7.156,4.406-7.156s25.338-1.657,28.094-1.657s7.188,4.407,7.188,4.407v.03l.125-.03c0,0,2.425-7.387,3.875-11c2.894-7.211,9.625-18.738,9.625-21.22c0-2.48.076-11.471-.813-13.25-.965-1.929-1.526-5.093-1.25-8.124.276-3.032,1.094-15.031,1.094-15.031ZM99.451,80.16c-1.397,1.07-1.103,4.409-.69,5.236.414.827.828-3.858,1.379-3.858s4.272,4.133,4.272,4.133-2.067,1.654-2.894,1.654-2.205-.413-2.205-.413.276,1.791,1.24,1.791c.965,0,7.965-2.263,8.957-2.205c2.343.138,13.642,2.618,15.158,2.48c1.516-.137,2.48-2.617,1.378-2.893s-5.098-7.441-6.89-7.579c-1.791-.138-3.26-1.041-10.473-1.24-1.54-.043-6.192.563-9.232,2.894Zm13.642-26.181c0,0-.827-5.788.827-6.752c1.653-.965,3.582-1.654,5.374-1.103c1.791.551,7.027,5.236,7.854,6.89.643,1.287,1.654,6.752,1.654,6.752s-10.473.827-11.024.827c-.158-2.146,1.952-2.318.413-4.685-1.654-.552-5.098-1.93-5.098-1.93Zm-18.051-.276c0,0-2.205-4.685.275-5.512s5.58.093,7.304,1.93c2.435,2.594,3.445,10.196,2.067,10.472s-8.268,0-8.268,0s4.685-.55,4.41-2.204c-.276-1.654-.552-1.654-2.343-2.756-1.174-.722-3.445-1.93-3.445-1.93ZM76.286,164.753c0,0,6.628,3.6,8.281,3.875c1.654.276,4.406,6.344,4.406,6.344s-.542,4.136-.818,7.994c-.139,1.944-2.492,14.607-.838,16.537s5.79,8.546,4.687,10.75c-.454.909-1.139,2.072-1.75,3.157c2.588-.086,4.862-.294,6.438-.688c6.614-1.654,11.031-3.312,11.031-3.312l-1.656-21.5v-14.875c0,0,34.162-3.304,37.469-4.407c3.307-1.102,6.099-1.168,8.844-.28c1.277.412,2.615,1.508,3.718,2.593l.407-.375c0,0-3.883-5.244-6.625-4.969-18.003,1.805-46.843,4.412-49.875,4.688-3.032.275-13.508-3.875-15.438-3.875s-8.282-1.657-8.282-1.657Z" fill="#595151"/><path d="M119.09,11.69c.635-.974-.238-1.813-.206-2.637.457,1.008,1.01,2.135.827,2.343c1.504-.18,1.394-1.228,1.929-1.93v2.068l2.618.689c1.118-.877.474-2.006.551-3.032l1.103,1.654c-.317.732,1.528,1.246,2.204-.827.138-.827-.826-2.894-.826-2.894s1.136,1.686,1.585,2.593c.356.719.895,2.092.895,2.092c1.037-.25,1.836-.578,1.9-1.36.059-.74-.595-1.927-.421-2.383l1.14,2.228c.696,1.361.362,2.443,1.515.137l1.378-2.756c-.355,1.804-1.807,5.528-.965,5.237h1.792c1.412-.139.79-2.084.827-3.445l.688.827c.834.643,1.382-.922.878-3.245l.776,1.591c1.25,2.187.64-2.715.64-2.715.481.625,1.202,2.96.876,4.23l1.102-.688-.689,3.858c1.925.655,3.676.913,4.272-.138.78-1.378,3.064-8.006,2.342-4.134-.139.748-.735,5.459-.05,3.593.234-.64.83-2.8.818-2.58-.09,1.572.522,3.02,1.814,1.38l1.828-3.22c0,0-1.103,3.032-.827,3.997.276.964-.16,2.568.965,2.756c0,0,1.228-3.109,1.791-3.859-.375,1-.964,3.996-.964,3.996l1.79.551c0,0-.272-4.083.139-6.063.272-1.31,1.516-3.72,1.516-3.72s-.836,3.746-.827,5.65c.007,1.487.689,4.41.689,4.41.348-1.353.25-2.63,1.516-4.135l.038,3.067c-.069,1.254.271,1.485,1.202.24.218,1.307.972-2.3,1.14-3.494.087-.61.563,1.258.927,1.84.642,1.029.08,3.832,2.204,2.894c0,0,1.378-2.618,1.378-1.791s.138,2.756.138,2.756c-.42.524,1.418.984,1.792.138.137-.552,2.388-2.3,1.288-.664-.317.472-2.33,2.356.013,3.32c2.342.965,2.006,2.442,2.006,2.442l-4.485-3.53c0,0-1.87-.153-3.496-.291-.7-.06-2.492-.726-3.319-.864-.826-.138-1.791-.551-1.102-.413.689.137,1.516,2.067,1.516,2.067-.69-.735-1.317-1.47-2.894-2.205-2.208-.1-2.567-.637-6.625-.301c0,0,1.413,1.61.975,1.266-.99-.423-.892-.825-2.26-1.266c0,0-6.094-1.003-7.844-.94c1.312.25,2.051,2.31,2.051,2.31s-1.172-2.06-3.797-2.998c.736.929.406,1.821.551,2.756-.6-1.114-.554-2.506-2.205-3.17c0,0-9.645-1.102-10.197-1.515-1.875-.938-6.08-1.46-7.924-1.773Z" fill="#447821"/></g></g><g transform="matrix(.579381 0 0 0.622881 482.302391 78.9584)"><g><path d="M147.69,303.74v-31.93c4.14.04,8.28,1.19,12.85,3.6c4.5,2.27,9.14,6.91,13.93,10.48c4.65,3.56,10.19,8.71,13.72,10.73c3.35,1.94,5.43,1.26,6.66.72c1.22-.65,1.44-2.34.64-4.79c5.19,3.81,11.38,7.09,18.87,10.26c7.45,3.09,20.55,7.27,25.7,8.1c4.9.57,3.71-2.67,4.07-4.03.36-1.41-3.06-3.82-1.91-4.32c1.15-.51,4.86.14,8.35.97c3.46.72,7.57,2.81,11.78,3.35c3.96.36,10.08.47,12.23-.51c2.02-1.04,1.19-3.63.44-5-.87-1.4-2.49-2.56-5.15-3.31c5.26-.72,10.3-1.84,15.66-3.35c5.22-1.59,13.28-4,15.84-5.98c2.48-2.19,3.24-4.21-1.08-6.19-4.64-1.94-21.81-3.35-25.7-5.47-3.82-2.31,1.76-4.97,2.98-7.85c1.19-3.02,5.19-7.78,4.07-9.54-1.19-1.73-5.87-.54-11.12-.72-5.51-.32-16.38.04-20.81-.72-4.32-.83-4.79-2.45-5.15-4.03-.47-1.73,3.64-5.15,2.59-5.98-1.22-.9-4.14-.21-9.43.94-5.44,1.04-17.06,4.5-22.1,5.51-4.93.9-6.59.72-7.49,0-.97-.87,1.94-4.04,1.51-4.79-.68-.83-1.26-.83-4.93,0-3.78.79-11.38,4.35-16.96,5-5.68.51-14.61-.39-16.48-1.19-1.77-.9,2.73-2.23,5.58-3.56c2.55-1.37,5.65-4.03,10.69-4.54c5.04-.57,14.58.72,19.73.98c4.97.07,7.99.36,10.73-.26c2.66-.79,3.02-2.44,5.79-3.56c2.74-1.04,9.04-1.48,10.69-3.1c1.52-1.72,1.19-4.24-1.26-7.41c4.65,1.3,9.18,1.33,14.15.5c4.82-.97,10.01-4.86,14.98-5.97c4.86-1.16,9.97-.54,14.36-.94c4.25-.54,11.09-.61,11.38-2.16.1-1.76-6.7-5.47-9.87-7.63-3.2-2.23-8.53-3.03-8.78-5.01-.29-2.01,3.38-5.11,7.27-6.91c3.96-2.05,11.2-3.35,15.88-4.28c4.43-.87,8.02.14,10.94-.72c2.92-1.01,6.88-3.35,6.19-4.93-.94-1.77-6.91-3.53-11.12-4.76-4.4-1.15-12.24-1.11-14.37-2.37-2.08-1.41,2.56-4.83,1.7-5.98-1.12-1.19-4.36-1.08-7.49-1.19-3.13-.25-7.71-.28-10.95-.25-3.31-.03-8.13.97-8.78.25-.72-.9,4.86-3.45,4.5-4.75-.54-1.26-2.59-2.91-7.27-2.63-4.86.29-14.9,1.77-20.81,4.04-5.8,2.08-10.44,6.94-13.93,8.6-3.6,1.44-5.58,1.8-7.06.94-1.48-.98-.9-5.94-1.73-5.73-.97.22-1.58,4.25-3.63,7.38-2.2,3.03-5.8,6.91-9,11.23-3.17,4.32-5.84,10.26-10.08,14.51-4.47,4.14-12.93,8.86-16.1,10.26-3.2,1.23-4.35.07-2.77-2.63c1.66-2.91,6.45-7.84,11.99-13.82c5.29-6.08,16.67-17.6,19.94-21.92c3.03-4.43-1.15-2.67-.86-4.04.25-1.44.61-2.01,2.59-4.06c1.87-2.09,7.35-5.66,8.79-8.36c1.29-2.8-1.73-5.9-.87-8.31.87-2.63,4.9-4.86,5.58-6.7.47-1.83-1.55-3.63-2.59-4.03-1.3-.5-3.74,2.16-4.28,1.19-.58-1.15.18-5.22,1.29-7.63c1.12-2.45,3.21-3.6,5.15-6.92c1.84-3.6,5.51-10.44,6.01-13.28.36-2.77-2.99-.94-3.24-3.1-.25-2.37,1.37-7.09,1.95-10.26.43-3.24,2.16-9.14.86-8.56-1.4.61-6.37,9.21-9.22,11.91-2.95,2.49-6.12,1.98-7.95,3.35-1.84,1.3-1.98,1.66-3.21,4.28-1.36,2.49-1.94,8.28-4.5,10.73-2.7,2.38-9.21,4.9-10.94,3.82-1.69-1.26,1.91-10.3.65-10.73-1.48-.39-6.45,5.04-9.22,8.1-2.91,2.88-5.51,8.14-7.92,9.54-2.37,1.26-5.22-2.88-6.44-1.19-1.37,1.7-.61,5.69-1.48,11.42-1.08,5.68-2.59,16.27-4.1,22.43-1.55,6.08-3.1,10.22-4.93,13.82-1.91,3.42-3.93,5.72-6.2,6.91c1.41-16.85,2.45-32.4,2.99-47.2.54-14.9.61-28.36.22-41.22c3.38,3.89,7.27,6.48,11.81,7.38c4.5.87,10.11.26,15.19-1.69c5-2.01,11.95-6.05,14.58-10.01c2.3-4.1,1.91-9.932.21-14.036-1.72-4.104-5.11-7.596-10.29-10.476c2.81.18,5.54-1.044,8.6-3.816c2.95-2.844,7.27-7.704,9.22-12.636c1.94-5.04,2.77-12.06,2.34-17.172-.72-5.184-2.05-11.232-5.8-13.572-3.89-2.376-11.55-2.016-16.49-.72-4.89,1.296-8.92,4.104-12.63,7.884-3.82,3.528-7.13,8.1-10.08,13.572c1.33-4.5,1.83-9.684,1.51-15.552-.32-5.976-1.22-14.004-3.67-19.764-2.67-5.976-7.24-12.204-11.77-14.796-4.76-2.556-11.34-2.412-15.45,0-4.1,2.376-6.91,7.74-8.57,14.292-1.65,6.479-2.08,14.616-1.29,24.552-3.6-3.456-7.96-6.12-13.5-7.848-5.618-1.8-14.582-4.104-19.514-2.88-4.932,1.044-10.152,4.356-9.828,9.54.108,5.256,7.56,15.696,11.124,21.456c3.564,5.544,6.552,9,10.08,12.168c3.418,3.168,6.878,5.292,10.508,6.66-8.384,3.96-13.892,8.28-16.52,13.104-2.628,4.752-2.412,11.16.648,15.48c3.024,4.18,12.272,7.31,16.922,9.79c4.43,2.41,6.3,4.18,9.65,4.75c3.2.4,5.72-.18,9.64-2.12c3.96-2.02,8.36-5.15,13.72-9.54.58,12.71.79,25.42.65,38.66-.15,13.22-.76,26.28-1.69,40.04-1.7-2.42-2.92-5.33-3.68-8.61-.79-3.49.11-9.47-1.04-11.41-1.3-1.84-4.97,1.94-6.44.22-1.48-2.06-1.34-8.82-2.78-11.42-1.72-2.55-5.5-3.7-6.87-3.6-1.37.04-.69,3.71-1.3,4.07-.65.32-1.51.5-2.99-2.38-1.69-3.02-4.6-12.63-6.66-15.51-2.08-2.99-4.28-1.87-5.76-1.91-1.54-.04-1.65,3.17-3.236,1.69-1.8-1.65-4.752-8.75-6.624-10.73-1.908-1.9-3.816-2.08-4.068-.97-.18,1.05,3.708,6.09,2.772,6.91-1.152.65-5.796-1.54-9.216-2.84-3.456-1.4-6.66-3.53-11.16-5.26-4.68-1.9-12.6-4.89-16.272-5.22-3.78-.21-6.012,1.37-5.58,3.78.504,2.24,7.452,7.82,8.352,9.8.684,1.72-4.68.43-3.852,1.65.72,1.23,7.272,4.54,8.568,6.19c1.152,1.52-1.368,2.16-1.044,3.6.36,1.37,1.296,3.5,3.204,5.01c1.8,1.47,7.236,2.7,7.704,3.81.432.94-3.6,1.66-5.148,2.6-1.692.97-4.788,1.44-4.716,3.35-.036,1.83,1.476,4.1,4.932,7.63s12.888,10.11,15.66,13.35c2.556,3.06-1.152,3.14,0,5.22c1.116,2.06,3.636,4.36,6.444,6.92c2.7,2.34,7.812,5.36,9.648,7.41c1.652,1.91-1.008,2.67.612,4.5c1.69,1.77,4.9,2.99,9.22,6.44c4.17,3.42,12.88,10.66,15.87,14.23c2.74,3.52,2.27,6.3,1.51,6.91-.82.54-1.9-.51-6.01-3.82-4.25-3.49-14.97-13.35-18.86-16.41-3.89-3.07-2.27-.29-4.286-1.7-2.16-1.51-6.012-4.31-8.352-6.91-2.448-2.7-4.428-8.1-5.796-8.82-1.44-.68-1.44,5.04-2.772,4.54-1.512-.69-3.996-6.01-5.796-8.35-1.908-2.49-3.672-4.97-5.148-5.94-1.44-.98-2.376.86-3.636.25-1.332-.72-1.512-2.74-4.284-4.54-2.952-1.94-8.82-4.17-12.888-6.69-4.068-2.7-8.352-6.66-11.34-8.57-3.24-1.98-6.804-4.25-7.092-2.63-.18,1.69,4.716,9.54,5.796,12.42c1.008,2.67,1.476,3.39,0,3.82-1.656.36-5.976-1.05-9.648-1.44-3.852-.54-8.388-1.26-12.636-1.19-4.212-.04-10.584.43-12.456,1.4-2.016.94-.756,2.2.864,4.32c1.548,2.02,6.552,5.15,8.784,7.85c2.232,2.59,1.692,5.51,4.5,7.63c2.772,1.98,8.208,2.6,11.592,4.76c3.312,2.12,7.38,5.22,7.92,7.88.252,2.56-3.384,5.29-5.364,7.38-2.016,1.94-4.932,2.88-5.976,4.75-1.152,1.87-1.296,4.72-.432,6.19.792,1.26,2.16,1.3,5.364,1.91c3.132.54,7.632,1.15,13.5,1.69-3.06,2.81-3.276,4.72-.648,5.73c2.592.97,10.692.07,16.092.21c5.292-.03,10.728-.32,15.624.26c4.752.54,9.108,1.65,13.068,3.34-4.284,3.06-6.444,5.76-6.624,8.1-.144,2.27,2.088,4.97,5.58,5.73c3.384.57,10.476-1.87,14.76-1.91c4.25-.11,6.34.22,10.73,1.4c4.35,1.08,10.55,2.88,15.23,5.26c4.64,2.2,8.53,5,12.2,8.28v31.68c3.28.14,6.55.28,9.87.46Z" fill-rule="evenodd" stroke="#000" stroke-width="0.036" stroke-miterlimit="10"/><path d="M139.55,270.87l5.58.72c.18,4.79.32,9.51.43,14.55.11,4.93.18,10.01.22,15.23-.72-.15-1.59-.22-2.59-.22-1.01,0-2.2.07-3.42.22-.08-10.16-.15-20.31-.22-30.5Z" fill="#00c200" fill-rule="evenodd" stroke="#000" stroke-width="0.036" stroke-miterlimit="10"/><path d="M143.4,267.78c-3.92-1.3-8.13-2.7-12.63-4.76-4.58-2.08-10.55-5.72-14.58-7.16-4.18-1.48-6.2-1.4-10.08-1.44-4-.03-9.652.61-13.072.97-3.42.11-5.328.51-7.092.22-1.872-.36-3.456-.94-3.636-2.12-.252-1.37,1.116-3.46,2.592-5.01c1.44-1.51,3.456-2.73,6.192-3.81-3.132-1.87-6.624-3.1-10.476-4.07-3.96-.94-7.812-1.22-12.672-1.4-5.004-.18-12.276-.04-16.272,0-3.888-.04-5.832-.08-7.092-.51-1.332-.68-.972-1.91-.864-2.84c0-.87.36-1.66,1.08-2.38-4.824-.32-8.748-.75-11.772-1.44-3.168-.79-5.904-1.29-6.66-2.63-.756-1.47.288-3.16,2.16-5.47c1.872-2.3,7.272-5.79,8.568-8.1c1.152-2.34.324-4.03-1.512-6.19-2.052-2.3-6.768-5.62-9.864-7.16-3.132-1.73-6.192-.76-8.352-2.49-2.196-1.91-2.988-6.08-4.716-8.1-1.836-2.09-4.14-2.19-5.796-3.81-1.656-1.8-4.68-4.86-4.068-5.98.504-1.01,2.916-.58,7.092-.25c4.032.25,12.06.83,17.136,1.44c4.968.43,11.016,1.94,12.852,1.18c1.62-.93-1.548-3.92-2.556-6.19-1.044-2.37-3.6-6.4-3.204-7.38.288-.93,2.664-.18,5.328,1.44c2.664,1.48,6.516,5.19,10.296,7.38c3.6,2.02,8.964,3.64,11.376,5.26c2.196,1.69,1.152,2.99,2.556,4.28c1.368,1.05,4.464.87,6.228,2.38c1.692,1.62,2.592,4.03,4.5,6.66c1.836,2.37,5.364,7.13,6.84,7.88c1.368.61.9-4.03,1.944-3.81.972.25,2.448,2.84,4.284,5c1.836,2.12,4.428,5.33,6.66,7.13c2.052,1.58,3.888,1.04,6.192,2.41c2.23,1.3,4.61,2.66,7.52,5.22c2.88,2.41,6.7,6.98,9.65,9.54c2.92,2.41,5.37,5.08,7.49,5.47c2.02.36,3.82-1.54,4.28-3.09.29-1.66.04-3.75-2.12-6.41-2.3-2.77-6.73-6.05-10.94-9.54-4.25-3.53-11.74-8.78-14.15-11.2-2.486-2.44.43-2.08-.43-3.34-.98-1.37-2.344-2.42-4.936-4.54-2.772-2.23-8.892-6.16-10.728-8.57-1.8-2.45.72-4.39.216-5.97-.648-1.7-.756-1.52-3.636-4.04-2.988-2.7-10.944-8.64-13.716-11.44-2.808-2.81-3.348-3.96-2.988-5.26.252-1.33,3.168-2.09,4.716-3.1c1.476-1.18,2.952-2.41,4.284-3.81-1.812634-1.286302-3.600949-2.606535-5.364-3.96-1.944-1.51-4.896-3.06-5.796-4.79-.828-1.8,1.476-4,.648-5.47-1.152-1.62-5.76-2.59-6.444-3.35-.648-.72,3.132.07,3.024-.94-.216-1.18-2.124-3.38-3.636-5.47-1.656-2.09-5.184-5.47-5.58-6.69-.324-1.26.36-1.44,3.42-.94c2.952.36,9.612,1.87,14.148,3.56c4.5,1.77,8.784,4.61,12.42,6.45c3.42,1.58,6.444,3.42,8.388,3.56c1.8,0,2.196-2.34,2.988-2.84.756-.51,1.008-.83,1.728,0c.576.72,1.188,3.09,2.124,4.5.972,1.4,2.16,3.02,3.42,3.35c1.12.07,2.27-2.38,3.46-2.63.97-.47,1.87-.69,2.98.72c1.16,1.37,2.49,5.04,3.86,8.1c1.26,2.99,2.59,7.85,3.85,10.01c1.15,1.94,2.23,2.73,3.24,2.37.9-.43,1.47-3.92,2.55-4.5.98-.61,2.56-.25,3.64.94.97,1.11,1.76,3.78,2.38,6.19.43,2.38-.26,6.62.86,7.88c1.15,1.05,4.72-1.62,5.98-1.18c1.04.43.75,1.83,1.08,3.81.21,1.87.25,4.5,1.08,7.6.9,3.06,2.16,6.59,4.06,10.73-.64,2.05-1,6.08-1.08,12.09-.07,6.05.15,13.86.65,23.83-4.17-9.79-8.67-19.11-13.93-28.65-5.36-9.54-11.84-19.91-17.35-27.9-5.51-8.03-9.074-13.47-15.014-19.77-6.084-6.48-19.224-17.1-20.808-18.1-1.512-.9,6.372,6.73,11.592,12.63c5.076,5.76,13.86,15.52,18.86,21.93c4.86,6.26,7.1,9.86,10.73,15.94c3.6,6.05,6.88,12.1,11.34,20.52c4.39,8.5,9.47,18.15,15.23,29.78.14.61.14,1.9,0,4.28-.22,2.3-.58,5.44-1.08,9.54-8.82-1.8-16.34-4.1-22.72-6.91-6.4-2.99-9.93-6.3-15.44-10.23-5.688-3.96-12.06-8.89-18-13.14-5.976-4.35-11.16-9.18-17.352-12.38-6.408-3.24-18.288-6.08-19.944-6.44-1.548-.44,6.444,2.48,10.512,4.32c3.888,1.76,7.776,3.06,13.068,6.66c5.148,3.52,11.088,9.07,18.216,14.54c7.128,5.44,18.07,13.68,24.23,17.64c5.94,3.71,6.95,3.38,11.77,5c4.75,1.66,10.4,2.99,16.96,4.54c2.48,2.12,6.8,4.61,13.5,7.74c6.66,3.06,16.13,7.74,25.92,10.73c9.57,2.84,20.73,4.32,31.53,6.66c10.8,2.3,24.09,5.79,32.76,7.13c8.54,1.15,18.18.68,18.26.25-.15-.43-10.44-1.33-18.65-2.85-8.35-1.65-21.35-4.86-30.67-6.69-9.33-1.95-15.81-2.05-24.88-4.5-9.22-2.59-22.54-7.31-29.56-10.26s-11.05-5.37-12.24-7.38c1.84-1.98,6.05-4.83,13.07-8.82c6.95-4.11,19.19-10.59,28.51-15.01c9.22-4.43,14.66-6.05,26.61-11.24c12.02-5.36,42.33-18.86,44.56-20.23c1.88-1.26-21.2,7.6-32.58,12.13-11.41,4.4-25.02,9.54-35.13,14.08-10.15,4.46-18.43,9-25.53,12.64-7.19,3.63-12.78,6.44-17.13,8.82l-.22-9.54c6.55-9.69,11.96-19.37,16.49-29.45c4.43-10.12,7.02-22.5,10.3-30.75c3.13-8.35,5.29-12.96,9-18.82c3.67-5.98,12.2-14.37,13.5-16.42c1.22-2.09-2.67.04-5.98,4.03-3.49,3.93-10.48,12.35-14.15,19.3-3.67,6.84-5.5,14.72-7.74,21.71-2.37,6.8-2.37,12.2-5.97,19.54-3.67,7.31-8.64,15.45-15.45,24.41-.21-4.71-.29-8.71-.21-12.13-.04-3.49.43-4.93.43-8.35c0-3.49-.15-7.42-.43-12.17c2.66-.14,5.04-1.91,7.27-5.58c2.19-3.71,4.17-10.22,5.79-16.2c1.44-6.12,2.56-14.26,3.21-19.55.64-5.29.1-9.86.86-11.91.61-2.16,1.94-.65,3.02-.72c1.05-.11,1.44,1.26,2.99.21c1.41-1.22,3.17-4.39,5.58-7.02c2.34-2.73,7.09-8.31,8.57-8.82c1.33-.39-1.08,4.29-.43,5.98.5,1.58,1.69,3.35,3.85,3.35c2.16-.18,6.73-2.56,9-4.07c2.09-1.62,2.7-2.92,4.07-5.26c1.33-2.48,2.37-7.16,4.1-9.03c1.62-1.91,3.75-.98,5.55-1.91c1.65-1.01,3.27-2.23,4.71-3.82c1.44-1.73,3.21-5.9,3.89-5.72.4.21-.29,4.64-.65,6.91-.36,2.2-1.76,4.28-1.29,5.98.25,1.51,3.38,1.29,3.42,3.09-.08,1.73-1.52,4.47-3.21,7.38-1.83,2.88-5.54,6.01-7.09,9.54-1.58,3.39-2.34,8.71-2.12,10.73.25,1.91,2.26.65,3.42.94c1.08.14,3.09-.4,2.98.46-.25.94-3.42,2.49-4.06,4.79-.8,2.2.36,6.12,0,8.32-.36,1.98-.29,1.94-2.13,4.07-2.01,2.16-7.77,6.44-9.21,8.81-1.44,2.2.72,3.46.64,4.76-.18,1.22.54-.04-1.72,2.88-2.52,2.88-8.18,9.57-12.64,14.54-4.57,4.86-10.91,10.62-14.15,14.76-3.35,4.03-5.43,7.81-5.15,9.54.29,1.69,3.39,2.13,7.06.72c3.6-1.58,10.66-5.83,14.8-9.54c3.99-3.85,6.69-8.89,9.64-12.63c2.81-3.75,5.51-6.7,7.71-9.54c2.16-2.96,4.07-5.48,5.58-7.85-.15,1.4.5,2.19,1.94,2.37c1.37.07,3.53-.43,6.63-1.65c3.09-1.3,7.95-4.21,11.8-5.98c3.68-1.91,6.74-3.85,10.3-5c3.49-1.3,7.6-1.84,10.51-2.16c2.77-.36,5.83-.65,6.41.25.43.9-2.7,3.81-2.99,5-.29,1.01-.39,1.37,1.48,1.66c1.87.18,5.47-.15,9.43,0c3.82.03,10.8-.07,13.32.5c2.41.51,1.08,1.55,1.26,2.6.11.97-1.83,2.41-.43,3.34c1.33.76,5.15,1.08,8.39,1.66c3.09.47,7.95,1.12,10.69,1.94c2.81.98,4.89,2.31,5.58,3.32.43.75,0,1.26-2.56,1.65-2.77.22-8.24-.39-13.07.51-4.93.89-11.91,3.23-15.66,5.22-3.81,1.87-5.58,4.39-6.65,6.19-1.08,1.69-1.34,3.06.21,4.53c1.55,1.41,5.65,2.49,8.57,4.07c2.81,1.48,7.77,3.92,7.95,5c0,.9-3.99.98-7.52,1.19-3.67.11-9.54-.65-13.71.25-4.15.94-7.46,3.96-10.91,5.48-3.6,1.44-6.27,2.84-10.08,3.09-3.93.11-7.92-.61-12.67-2.16c1.08,1.95,1.8,3.6,2.16,5.26.35,1.69,1.47,3.17,0,4.28-1.59.83-7.28.61-9.44,1.44-2.27.83-1.19,2.85-3.85,3.57-2.84.61-7.2.32-12.24.25-5.08-.18-13.25-1.15-17.57-.98-4.32.08-5.11.44-8.35,1.91-3.53,1.51-10.01,5.11-11.81,6.91-1.69,1.66.18,2.27,1.3,3.1.9.76,1.62,1.26,4.5,1.66c2.84.36,8.71.75,12.45.5c3.68-.47,6.27-1.62,9.44-2.63c3.13-1.15,7.38-3.24,9-3.35c1.29-.1-.72,1.52-.22,2.63.47.97,1.01,2.92,3.42,3.35c2.3.29,5.83-.29,10.73-1.19c4.82-1.04,14.25-3.71,18.43-4.53c3.96-.98,5.44-1.41,5.98-.72.47.68-2.7,3.74-2.56,5c.15,1.15,1.08,1.44,3.21,2.38c2.05.82,5,2.34,9,2.88c3.92.39,10.65.07,14.79,0c4.11-.15,7.78-1.01,9.65-.51c1.65.51.9,1.95.65,3.35-.33,1.26-1.62,2.88-2.34,4.28-.76,1.34-1.48,2.49-2.16,3.6-1.01.98-2.63,1.12-2.78,2.38-.1,1.19-.07,3.56,2.34,4.75c2.31.98,7.82.98,11.81,1.66c3.96.68,9.44,1.44,11.99,2.41c2.48.76,4.36,1.66,2.99,2.84-1.55,1.08-7.85,2.88-11.56,4.29-3.74,1.33-6.87,2.91-10.51,4.07-3.793614,1.057522-7.6563,1.849439-11.56,2.37c1.44,1.3,2.78,2.7,3.86,4.07c1.11,1.37,3.38,3.49,2.77,4.28-.76.62-4.61.29-7.27,0-2.81-.39-6.34-1.22-9.22-1.9-2.88-.76-5.26-2.06-7.96-2.38-2.84-.58-7.48-1.12-8.78-.25-1.3.97.61,4.17.86,5.72.08,1.33.65,2.34-.21,2.63-.94.22-.83.36-5.37-1.22-4.75-1.73-15.37-5.51-22.28-8.57-6.95-3.1-13.14-6.3-18.86-9.76-.04,1.69-.33,2.99-.87,4.03-.57,1.01-.1,2.81-2.34,1.91-2.34-1.19-7.31-4.64-11.16-7.85-3.96-3.2-7.81-7.88-11.98-10.72-4.25-2.78-8.82-4.79-12.89-6.2-4.11-1.61-7.96-2.37-11.56-2.8Z" fill="#00c200" fill-rule="evenodd" stroke="#000" stroke-width="0.036" stroke-miterlimit="10"/><path d="M131.81,56.997c-1.69-1.008-3.42-2.232-5.33-3.816-2.01-1.656-4.71-4.068-6.01-5.724-1.3-1.764-1.8-3.276-1.51-4.536-3.57-2.7-7.63-4.788-12.21-6.408-4.75-1.728-11.012-3.024-15.44-3.348-4.392-.396-8.568,0-10.728,1.188-2.304,1.044-2.988,2.196-2.34,5.256s4.212,8.82,6.408,12.852c2.16,3.852,2.484,6.048,6.66,10.476s10.12,9.504,18.22,15.768c.28-.288,1.76-.72,4.28-1.44c2.56-.72,6.16-1.728,10.94-2.88-.18-2.88.33-5.688,1.52-8.568c1.18-2.952,2.98-5.796,5.54-8.82Zm-5.54,19.764c1.18,1.404,2.41,2.628,4.06,4.068c1.55,1.404,3.06,2.952,5.37,4.068c2.23.936,4.82,1.62,7.92,1.908c1.91,3.384,2.45,6.696,1.91,10.224-.62,3.531-3.06,7.311-5.55,10.511-2.63,3.1-6.3,5.58-9.65,7.85-3.52,2.12-7.77,4.57-10.51,5-2.73.22-3.09-1.65-5.36-2.84-2.38-1.26-5.11-2.52-8.35-4.07-3.35-1.62-8.824-2.77-11.164-5-2.448-2.27-2.772-5.66-2.772-8.36-.036-2.803.504-5.575,2.988-8.311c2.376-2.88,6.368-6.12,11.588-8.604c5.26-2.484,11.63-4.68,19.52-6.444Zm21.2,10.98c.5.324.72,1.728.65,4.068-.15,2.304-.58,5.688-1.3,10.011c2.49,1.94,5.22,3.63,8.36,5.22c3.06,1.51,6.22,3.7,10.07,4.06c3.75.26,8.36-.86,12.46-2.37c3.93-1.59,9.58-3.93,11.56-7.17c1.87-3.379,1.62-9.247.21-12.883-1.54-3.78-5.47-7.02-9-9.036-3.67-2.016-8.38-2.196-12.2-2.88-3.85-.792-7.31-1.296-10.51-1.656-.51,2.232-1.44,4.284-3.21,6.444-1.8,2.088-4.03,4.104-7.09,6.192Zm9.43-15.732c3.03.396,5.94,1.008,9.43,1.44c3.39.396,7.57,1.152,10.73,1.44c2.88.144,4.47,1.44,7.27,0c2.96-1.548,7.31-5.256,9.87-8.604c2.34-3.42,3.74-6.912,4.5-11.448.57-4.716,1.08-12.384-.43-16.2-1.66-3.852-5.01-6.12-8.79-6.66-3.89-.576-9.61,1.008-13.71,3.348-4.18,2.124-7.24,5.832-10.73,10.008-3.6,4.212-6.73,9.072-10.08,15.012c1.08,1.368,1.8,2.988,2.16,5.004.29,1.98.21,4.104-.22,6.66Zm-4.93-14.58c1.51-1.26,2.7-4.392,3.42-9.54.72-5.292,2.2-14.904,1.08-21.204-1.22-6.408-5.11-12.276-8.35-16.2-3.46-4.032-7.92-6.372-11.59-7.164-3.71-.792-7.53-.396-10.05,2.844-2.66,3.24-4.1,11.124-5.15,16.452-1,5.292-1.29,10.944-.86,15.012.29,3.924.68,5.544,2.99,8.604c2.23,2.952,5.69,6.048,10.51,9.288c3.53-2.124,6.52-2.952,9.65-2.628c2.91.288,5.83,1.8,8.35,4.536Z" fill="#fbffd6" fill-rule="evenodd" stroke="#000" stroke-width="0.036" stroke-miterlimit="10"/><path d="M133.54,60.273c-1.98,1.656-3.21,2.628-4.07,5.004-1.01,2.376-2.48,5.76-1.51,8.604c1.08,2.592,4.53,5.652,7.31,7.38c2.59,1.62,5.83,2.7,8.35,2.844c2.37.144,4.21-.54,6.19-1.908c1.94-1.548,4.57-3.96,5.37-6.66.72-2.88-.33-6.804-1.05-9.54-.83-2.7-1.8-4.752-3.89-6.444-2.19-1.8-6.3-4.212-9-4.032-2.81.036-5.79,3.096-7.7,4.752Z" fill="#f3ec63" fill-rule="evenodd" stroke="#000" stroke-width="0.036" stroke-miterlimit="10"/><path d="M142.97,252.66l3.64-3.6c-.83-12.71-1.26-24.27-1.3-35.5s.47-21.96,1.08-31.21c.47-9.33,1.69-16.24,2.16-24.34.4-8.13.36-15.69.43-24.23c0-8.64-.14-17.6-.43-27.18l-2.16-1.9-3.64,5c.54,7.74.83,17.03.87,28.15-.04,11.13-.33,27.22-.87,38.13-.57,10.76-2.05,18.9-2.34,26.2-.43,7.17.26,11.16.4,16.85.14,5.73.68,11.41.65,16.92-.18,5.29-.47,10.3-1.26,15.02.9.54,1.83,1.11,2.77,1.69Z" fill="#00c200" fill-rule="evenodd" stroke="#000" stroke-width="0.036" stroke-miterlimit="10"/></g></g></svg>